<svg width="118" height="36" viewBox="0 0 118 36" fill="none" xmlns="http://www.w3.org/2000/svg">
<g clip-path="url(#clip0_7893_763)">
<path d="M9.99155 12.9171C12.7257 12.9171 14.9421 10.67 14.9421 7.89811C14.9421 5.12622 12.7257 2.87915 9.99155 2.87915C7.25744 2.87915 5.04102 5.12622 5.04102 7.89811C5.04102 10.67 7.25744 12.9171 9.99155 12.9171Z" fill="#164EBD"/>
<path d="M27.9252 21.0162C28.6908 21.0162 29.3114 20.3844 29.3114 19.605C29.3114 18.8257 28.6908 18.1938 27.9252 18.1938C27.1597 18.1938 26.5391 18.8257 26.5391 19.605C26.5391 20.3844 27.1597 21.0162 27.9252 21.0162Z" fill="#164EBD"/>
<path d="M2.07031 14.5859H6.12975V30.7472H2.07031V14.5859Z" fill="#164EBD"/>
<path d="M16.2651 30.686V34.8092H6.12891V30.686H16.2651Z" fill="#164EBD"/>
<path d="M4.10003 16.6476C5.22101 16.6476 6.12975 15.7246 6.12975 14.586C6.12975 13.4474 5.22101 12.5244 4.10003 12.5244C2.97905 12.5244 2.07031 13.4474 2.07031 14.586C2.07031 15.7246 2.97905 16.6476 4.10003 16.6476Z" fill="#164EBD"/>
<path d="M16.2655 34.8092C17.4616 34.8092 18.4313 33.8862 18.4313 32.7476C18.4313 31.609 17.4616 30.686 16.2655 30.686C15.0693 30.686 14.0996 31.609 14.0996 32.7476C14.0996 33.8862 15.0693 34.8092 16.2655 34.8092Z" fill="#164EBD"/>
<path d="M6.12975 34.7967C3.90201 34.7967 2.07031 32.9192 2.07031 30.6736L6.12975 34.7967Z" fill="#164EBD"/>
<path d="M2.07031 30.686H6.12975V34.7969" fill="#164EBD"/>
<path d="M20.1899 29.0047C22.0835 25.2742 24.1132 21.4088 26.0068 17.6783C26.5513 16.7825 25.0662 15.8744 24.5216 16.9052C22.628 20.6357 20.5983 24.5011 18.7047 28.2316C18.2963 29.1397 19.6453 29.9128 20.1899 29.0047Z" fill="#164EBD"/>
</g>
<path d="M44.4274 28.4833C44.4274 29.2167 44.4895 29.8167 44.6138 30.2833C44.7381 30.75 44.9401 31.1167 45.2352 31.3833C45.5148 31.65 45.8877 31.85 46.3537 31.95C46.8198 32.05 47.379 32.1 48.047 32.1H56.4358V36H47.1305C45.8411 36 44.7536 35.8833 43.8371 35.6667C42.9361 35.4333 42.2059 35.0833 41.6311 34.6167C41.0564 34.15 40.6369 33.55 40.3884 32.8167C40.1243 32.1 40 31.2333 40 30.2333V18.4333H44.4274V28.4833ZM75.0464 22.4167C74.9221 22.3667 74.7512 22.3167 74.5182 22.25C74.3007 22.1833 74.0366 22.1 73.726 22.0333C73.4308 21.9667 73.089 21.9 72.7317 21.85C72.3744 21.8 72.0016 21.7667 71.6132 21.7667C70.821 21.7667 70.0753 21.8667 69.3918 22.0833C68.7082 22.2833 68.0713 22.5667 67.4654 22.9167C66.8751 23.2667 66.3159 23.65 65.8032 24.1C65.2906 24.5333 64.8245 24.9833 64.3896 25.45V36H59.9622V18.45H64.3896V21.3C64.9177 20.8667 65.4615 20.4667 66.0207 20.0667C66.58 19.6667 67.1703 19.3167 67.7761 19.0167C68.382 18.7167 69.0345 18.4667 69.7025 18.2833C70.3704 18.1 71.1006 18 71.8462 18C72.1259 18 72.421 18.0167 72.7162 18.05C73.0114 18.0833 73.3065 18.1167 73.5861 18.15C73.8658 18.2 74.1299 18.2333 74.3784 18.2833C74.627 18.3333 74.8445 18.3833 75.0153 18.4333V22.4167H75.0464ZM93.4551 36V26.1667C93.4551 25.5167 93.4085 24.9167 93.2997 24.3833C93.191 23.85 93.0046 23.4 92.725 23.0167C92.4453 22.6333 92.057 22.35 91.5443 22.1333C91.0472 21.9167 90.3947 21.8167 89.6025 21.8167C88.9966 21.8167 88.3597 21.9 87.6917 22.0833C87.0237 22.25 86.3712 22.4833 85.7188 22.7833C85.0663 23.0667 84.4449 23.4167 83.8546 23.8C83.2643 24.1833 82.7361 24.5833 82.2701 25V36H77.8427V18.45H82.2701V20.85C82.8293 20.5167 83.4196 20.1667 84.041 19.8333C84.6624 19.5 85.3304 19.1833 86.045 18.9167C86.7596 18.65 87.5053 18.4167 88.2976 18.25C89.0898 18.0833 89.9287 18 90.8142 18C91.9171 18 92.9114 18.15 93.7813 18.4333C94.6513 18.7167 95.3969 19.1167 96.0028 19.65C96.6086 20.1667 97.0747 20.8 97.3854 21.55C97.7116 22.3 97.867 23.1333 97.867 24.05V36H93.4551ZM118 22.4167C117.876 22.3667 117.705 22.3167 117.472 22.25C117.254 22.1833 116.99 22.1 116.68 22.0333C116.384 21.9667 116.043 21.9 115.685 21.85C115.328 21.8 114.955 21.7667 114.567 21.7667C113.775 21.7667 113.029 21.8667 112.345 22.0833C111.662 22.2833 111.025 22.5667 110.419 22.9167C109.829 23.2667 109.269 23.65 108.757 24.1C108.244 24.5333 107.778 24.9833 107.343 25.45V36H102.916V18.45H107.343V21.3C107.871 20.8667 108.415 20.4667 108.974 20.0667C109.534 19.6667 110.124 19.3167 110.73 19.0167C111.336 18.7167 111.988 18.4667 112.656 18.2833C113.324 18.1 114.054 18 114.8 18C115.079 18 115.375 18.0167 115.67 18.05C115.965 18.0833 116.26 18.1167 116.54 18.15C116.819 18.2 117.083 18.2333 117.332 18.2833C117.581 18.3333 117.798 18.3833 117.969 18.4333V22.4167H118Z" fill="#164EBD"/>
<defs>
<clipPath id="clip0_7893_763">
<rect width="36" height="36" fill="white"/>
</clipPath>
</defs>
</svg>
